<svg width="147" height="38" viewBox="0 0 147 38" fill="none" xmlns="http://www.w3.org/2000/svg">
<path d="M146.061 23.0607C146.646 22.4749 146.646 21.5251 146.061 20.9393L136.515 11.3934C135.929 10.8076 134.979 10.8076 134.393 11.3934C133.808 11.9792 133.808 12.9289 134.393 13.5147L142.879 22L134.393 30.4853C133.808 31.0711 133.808 32.0208 134.393 32.6066C134.979 33.1924 135.929 33.1924 136.515 32.6066L146.061 23.0607ZM0 23.5H145V20.5H0V23.5Z" fill="#FEFFDA"/>
<path d="M16.5461 12.7002H21.5705L26.0675 23.1006L27.3859 26.0156L28.9972 22.2363L24.7199 12.7002H28.9386L31.0334 17.8271L33.1281 12.7002H37.3468L33.0548 22.2363L34.6808 26.0156L35.9992 23.1006L40.4962 12.7002H45.5207L37.3322 30H32.6154L31.0334 26.6602L29.4513 30H24.7345L16.5461 12.7002ZM48.5529 12.7148H52.8888V15.2051C53.8459 14.4922 54.8566 13.877 55.9211 13.3594C56.9855 12.8418 58.0451 12.4463 59.0998 12.1729L60.3742 16.1426C58.7043 16.3086 57.2345 16.6846 55.965 17.2705C54.7052 17.8467 53.6798 18.6621 52.8888 19.7168V30H48.5529V12.7148ZM65.8966 10.3564C65.4669 10.3564 65.0763 10.2979 64.7248 10.1807C64.383 10.0537 64.09 9.8877 63.8459 9.68262C63.6017 9.46777 63.4113 9.22363 63.2746 8.9502C63.1476 8.66699 63.0841 8.36914 63.0841 8.05664C63.0841 7.73438 63.1476 7.43652 63.2746 7.16309C63.4113 6.87988 63.6017 6.63574 63.8459 6.43066C64.09 6.22559 64.383 6.06445 64.7248 5.94727C65.0763 5.82031 65.4669 5.75684 65.8966 5.75684C66.3361 5.75684 66.7267 5.82031 67.0685 5.94727C67.4201 6.06445 67.7179 6.22559 67.9621 6.43066C68.2062 6.63574 68.3918 6.87988 68.5187 7.16309C68.6554 7.43652 68.7238 7.73438 68.7238 8.05664C68.7238 8.36914 68.6554 8.66699 68.5187 8.9502C68.3918 9.22363 68.2062 9.46777 67.9621 9.68262C67.7179 9.8877 67.4201 10.0537 67.0685 10.1807C66.7267 10.2979 66.3361 10.3564 65.8966 10.3564ZM63.7287 12.7148H68.0646V30H63.7287V12.7148ZM76.2384 15.9668H72.0636V12.7148H76.2384V7.33887H80.5744V12.7148H84.7492V15.9668H80.5744V30H76.2384V15.9668ZM87.7814 21.2988C87.7814 20.127 88.0207 19.0088 88.4992 17.9443C88.9777 16.8701 89.6662 15.9229 90.5646 15.1025C91.463 14.2822 92.5617 13.6279 93.8605 13.1396C95.1691 12.6514 96.6535 12.4072 98.3136 12.4072C99.964 12.4072 101.448 12.6562 102.767 13.1543C104.095 13.6426 105.218 14.3164 106.136 15.1758C107.064 16.0352 107.772 17.0459 108.26 18.208C108.758 19.3701 109.007 20.6152 109.007 21.9434C109.007 22.1094 109.002 22.29 108.992 22.4854C108.992 22.6709 108.983 22.8418 108.963 22.998H92.6154C92.8009 23.5156 93.0988 23.9893 93.5089 24.4189C93.9289 24.8486 94.4513 25.2197 95.0763 25.5322C95.7013 25.8447 96.424 26.0889 97.2443 26.2646C98.0646 26.4307 98.9728 26.5137 99.9689 26.5137C100.965 26.5137 101.956 26.4111 102.943 26.2061C103.929 25.9912 104.871 25.7227 105.77 25.4004L107.235 28.7109C106.668 28.9746 106.092 29.209 105.506 29.4141C104.93 29.6094 104.324 29.7754 103.69 29.9121C103.065 30.0391 102.405 30.1367 101.712 30.2051C101.028 30.2734 100.306 30.3076 99.5441 30.3076C97.6007 30.3076 95.8966 30.0732 94.4318 29.6045C92.9669 29.1357 91.7414 28.4961 90.755 27.6855C89.7687 26.875 89.0265 25.9229 88.5285 24.8291C88.0304 23.7354 87.7814 22.5586 87.7814 21.2988ZM104.407 19.6143C104.251 19.1357 104.007 18.6914 103.675 18.2812C103.353 17.8613 102.947 17.5 102.459 17.1973C101.971 16.8848 101.404 16.6406 100.76 16.4648C100.115 16.2891 99.4074 16.2012 98.6359 16.2012C97.8156 16.2012 97.0685 16.2939 96.3947 16.4795C95.7209 16.665 95.13 16.9141 94.6222 17.2266C94.1144 17.5391 93.6896 17.9004 93.3478 18.3105C93.0158 18.7207 92.7716 19.1553 92.6154 19.6143H104.407ZM113.68 12.7148H118.016V15.2051C118.973 14.4922 119.984 13.877 121.048 13.3594C122.112 12.8418 123.172 12.4463 124.227 12.1729L125.501 16.1426C123.831 16.3086 122.361 16.6846 121.092 17.2705C119.832 17.8467 118.807 18.6621 118.016 19.7168V30H113.68V12.7148Z" fill="#FEFFDA"/>
</svg>
